<?xml version="1.0" encoding="utf-8"?>
<!-- Generator: Adobe Illustrator 27.5.0, SVG Export Plug-In . SVG Version: 6.00 Build 0)  -->
<svg version="1.1" xmlns="http://www.w3.org/2000/svg" xmlns:xlink="http://www.w3.org/1999/xlink" x="0px" y="0px"
	 viewBox="0 0 500 500" style="enable-background:new 0 0 500 500;" xml:space="preserve">
<g id="BACKGROUND">
	<rect id="XMLID_232_" style="fill:#F7F7F7;" width="500" height="500"/>
</g>
<g id="OBJECTS">
	
		<radialGradient id="SVGID_1_" cx="250" cy="367.721" r="88.327" gradientTransform="matrix(1 0 0 0.0897 0 297.8356)" gradientUnits="userSpaceOnUse">
		<stop  offset="5.800000e-07" style="stop-color:#606060"/>
		<stop  offset="0.9997" style="stop-color:#EAEDEE;stop-opacity:0"/>
	</radialGradient>
	<ellipse style="opacity:0.3;fill:url(#SVGID_1_);" cx="250" cy="330.818" rx="124.761" ry="10.991"/>
	<g>
		<path style="fill:#048ED6;" d="M329.614,118.272c-2.548,0-9.319,0.047-19.223,0.452v108.218v5.224l-5.222,0.146
			c-28.328,0.789-54.898,5.432-74.472,9.907c13.426-1.062,30.082-1.93,48.706-1.93c15.953,0,33.332,0.636,51.34,2.333V118.276
			C330.743,118.276,330.358,118.272,329.614,118.272z"/>
		<path style="fill:#048ED6;" d="M305.02,118.966v-2.702v-2.688v-10.978c0,0-4.324,0.572-11.841,1.951v9.703v2.691v2.706v80.474
			l-0.002,4.719l-4.679,0.608c-0.61,0.079-61.339,8.247-88.205,35.807l-3.763,3.86l-0.018,0.019l-0.065,0.906
			c0,0,50.251-17.473,108.573-19.099V118.966z"/>
		<path style="fill:#048ED6;" d="M197.295,236.662c28.895-28.567,90.513-36.54,90.513-36.54v-80.101v-2.708v-2.692v-9.052v-2.717
			v-2.775V83.092c-19.709,0-40.534,6.396-57.316,13.328c-13.373,5.524-23.705,15.945-29.326,28.671
			c-0.607,1.374-1.164,2.772-1.659,4.196c-1.994,5.74-3.06,11.864-3.06,18.159v24.149v14.801v22.425v7.403v21.283
			c0.218-0.223,0.444-0.442,0.665-0.662C197.173,236.783,197.234,236.722,197.295,236.662z"/>
	</g>
	<g>
		<path style="fill:#003159;" d="M188.153,255.177V150.215c0-26.592-16.634-50.649-41.393-59.864
			c-6.048-2.251-12.289-4.222-18.642-5.889c-4.811-1.263-9.705,1.757-10.748,6.62v0c-0.979,4.565,1.81,9.082,6.326,10.267
			c5.788,1.519,11.472,3.314,16.975,5.362c17.958,6.684,30.025,24.167,30.025,43.504v116.122l0.009,11.743l11.247-3.388
			c0.259-0.079,10.786-3.166,29.215-5.775c4.246-5.631,10.969-9.294,18.549-9.294c6.044,0,11.538,2.338,15.676,6.131
			c8.857-0.412,18.494-0.559,28.825-0.303c4.099-3.615,9.461-5.829,15.343-5.829c6.949,0,13.178,3.081,17.442,7.93
			c8.289,0.855,16.881,1.984,25.743,3.442c4.705,0.774,9.172-2.33,10.038-7.018l0,0c0.886-4.792-2.324-9.403-7.132-10.197
			C264.376,242.01,210.523,250.317,188.153,255.177z"/>
		<path style="fill:#003159;" d="M232.399,266.575c-0.875-0.144-1.767-0.238-2.682-0.238c-1.969,0-3.85,0.364-5.603,0.999
			c-6.362,2.303-10.928,8.387-10.928,15.533c0,9.116,7.416,16.532,16.532,16.532s16.532-7.416,16.532-16.532
			C246.248,274.669,240.24,267.863,232.399,266.575z"/>
		
			<ellipse transform="matrix(0.7071 -0.7071 0.7071 0.7071 -115.2081 287.6009)" style="fill:#003159;" cx="289.561" cy="282.869" rx="16.532" ry="16.532"/>
	</g>
</g>
<g id="TEXTS">
	<text transform="matrix(1 0 0 1 120.0523 389.2573)"><tspan x="0" y="0" style="fill:#003159; font-family:'Montserrat-ExtraBold'; font-size:46px;">Book</tspan><tspan x="128.568" y="0" style="fill:#048ED6; font-family:'Montserrat-ExtraBold'; font-size:46px;">Store</tspan></text>
	<text transform="matrix(1 0 0 1 198.0502 411.7945)" style="fill:#048ED6; font-family:'OpenSans-BoldItalic'; font-size:20px;">Slogan Here</text>
</g>
</svg>
